<mxfile host="app.diagrams.net" modified="2023-08-14T03:25:59.550Z" agent="Mozilla/5.0 (Windows NT 10.0; Win64; x64) AppleWebKit/537.36 (KHTML, like Gecko) Chrome/115.0.0.0 Safari/537.36 Edg/115.0.1901.203" etag="h8aEQZZjvRa2jfWIl6wu" version="21.6.8" type="github">
  <diagram name="Page-1" id="SJ8YPq7MhVKhCTlzgT_y">
    <mxGraphModel dx="2698" dy="1008" grid="1" gridSize="10" guides="1" tooltips="1" connect="1" arrows="1" fold="1" page="1" pageScale="1" pageWidth="850" pageHeight="1100" math="0" shadow="0">
      <root>
        <mxCell id="0" />
        <mxCell id="1" parent="0" />
        <mxCell id="PvjCdeY7pSC6lOEJBARH-16" style="edgeStyle=orthogonalEdgeStyle;rounded=0;orthogonalLoop=1;jettySize=auto;html=1;" edge="1" parent="1" source="PvjCdeY7pSC6lOEJBARH-1" target="PvjCdeY7pSC6lOEJBARH-15">
          <mxGeometry relative="1" as="geometry" />
        </mxCell>
        <mxCell id="PvjCdeY7pSC6lOEJBARH-1" value="文艺复习" style="rounded=0;whiteSpace=wrap;html=1;" vertex="1" parent="1">
          <mxGeometry x="200" y="460" width="120" height="60" as="geometry" />
        </mxCell>
        <mxCell id="PvjCdeY7pSC6lOEJBARH-2" value="地理大发现" style="rounded=0;whiteSpace=wrap;html=1;" vertex="1" parent="1">
          <mxGeometry x="500" y="760" width="120" height="60" as="geometry" />
        </mxCell>
        <mxCell id="PvjCdeY7pSC6lOEJBARH-5" style="edgeStyle=orthogonalEdgeStyle;rounded=0;orthogonalLoop=1;jettySize=auto;html=1;entryX=0;entryY=0.5;entryDx=0;entryDy=0;" edge="1" parent="1" source="PvjCdeY7pSC6lOEJBARH-3" target="PvjCdeY7pSC6lOEJBARH-4">
          <mxGeometry relative="1" as="geometry" />
        </mxCell>
        <mxCell id="PvjCdeY7pSC6lOEJBARH-3" value="印刷术" style="rounded=0;whiteSpace=wrap;html=1;" vertex="1" parent="1">
          <mxGeometry x="210" y="220" width="120" height="60" as="geometry" />
        </mxCell>
        <mxCell id="PvjCdeY7pSC6lOEJBARH-4" value="宗教改革" style="rounded=0;whiteSpace=wrap;html=1;" vertex="1" parent="1">
          <mxGeometry x="390" y="220" width="120" height="60" as="geometry" />
        </mxCell>
        <mxCell id="PvjCdeY7pSC6lOEJBARH-7" style="edgeStyle=orthogonalEdgeStyle;rounded=0;orthogonalLoop=1;jettySize=auto;html=1;entryX=0;entryY=0.5;entryDx=0;entryDy=0;" edge="1" parent="1" source="PvjCdeY7pSC6lOEJBARH-6" target="PvjCdeY7pSC6lOEJBARH-1">
          <mxGeometry relative="1" as="geometry" />
        </mxCell>
        <mxCell id="PvjCdeY7pSC6lOEJBARH-12" style="edgeStyle=orthogonalEdgeStyle;rounded=0;orthogonalLoop=1;jettySize=auto;html=1;entryX=0.5;entryY=1;entryDx=0;entryDy=0;" edge="1" parent="1" source="PvjCdeY7pSC6lOEJBARH-6" target="PvjCdeY7pSC6lOEJBARH-4">
          <mxGeometry relative="1" as="geometry" />
        </mxCell>
        <mxCell id="PvjCdeY7pSC6lOEJBARH-6" value="中世纪宗教统治" style="rounded=0;whiteSpace=wrap;html=1;" vertex="1" parent="1">
          <mxGeometry x="110" y="330" width="120" height="60" as="geometry" />
        </mxCell>
        <mxCell id="PvjCdeY7pSC6lOEJBARH-10" style="edgeStyle=orthogonalEdgeStyle;rounded=0;orthogonalLoop=1;jettySize=auto;html=1;entryX=0;entryY=0.5;entryDx=0;entryDy=0;" edge="1" parent="1" source="PvjCdeY7pSC6lOEJBARH-8" target="PvjCdeY7pSC6lOEJBARH-9">
          <mxGeometry relative="1" as="geometry" />
        </mxCell>
        <mxCell id="PvjCdeY7pSC6lOEJBARH-22" style="edgeStyle=orthogonalEdgeStyle;rounded=0;orthogonalLoop=1;jettySize=auto;html=1;entryX=0;entryY=0.5;entryDx=0;entryDy=0;" edge="1" parent="1" source="PvjCdeY7pSC6lOEJBARH-8" target="PvjCdeY7pSC6lOEJBARH-21">
          <mxGeometry relative="1" as="geometry">
            <Array as="points">
              <mxPoint x="-90" y="850" />
            </Array>
          </mxGeometry>
        </mxCell>
        <mxCell id="PvjCdeY7pSC6lOEJBARH-8" value="拜占庭覆灭" style="rounded=0;whiteSpace=wrap;html=1;" vertex="1" parent="1">
          <mxGeometry x="-120" y="330" width="120" height="60" as="geometry" />
        </mxCell>
        <mxCell id="PvjCdeY7pSC6lOEJBARH-11" style="edgeStyle=orthogonalEdgeStyle;rounded=0;orthogonalLoop=1;jettySize=auto;html=1;entryX=0;entryY=0.75;entryDx=0;entryDy=0;" edge="1" parent="1" source="PvjCdeY7pSC6lOEJBARH-9" target="PvjCdeY7pSC6lOEJBARH-1">
          <mxGeometry relative="1" as="geometry" />
        </mxCell>
        <mxCell id="PvjCdeY7pSC6lOEJBARH-9" value="文化传播" style="rounded=0;whiteSpace=wrap;html=1;" vertex="1" parent="1">
          <mxGeometry x="-10" y="475" width="120" height="60" as="geometry" />
        </mxCell>
        <mxCell id="PvjCdeY7pSC6lOEJBARH-14" style="edgeStyle=orthogonalEdgeStyle;rounded=0;orthogonalLoop=1;jettySize=auto;html=1;entryX=0.5;entryY=1;entryDx=0;entryDy=0;" edge="1" parent="1" source="PvjCdeY7pSC6lOEJBARH-13" target="PvjCdeY7pSC6lOEJBARH-1">
          <mxGeometry relative="1" as="geometry" />
        </mxCell>
        <mxCell id="PvjCdeY7pSC6lOEJBARH-24" style="edgeStyle=orthogonalEdgeStyle;rounded=0;orthogonalLoop=1;jettySize=auto;html=1;exitX=1;exitY=0.75;exitDx=0;exitDy=0;" edge="1" parent="1" source="PvjCdeY7pSC6lOEJBARH-13" target="PvjCdeY7pSC6lOEJBARH-23">
          <mxGeometry relative="1" as="geometry" />
        </mxCell>
        <mxCell id="PvjCdeY7pSC6lOEJBARH-13" value="地中海区域商业活动" style="rounded=0;whiteSpace=wrap;html=1;" vertex="1" parent="1">
          <mxGeometry y="590" width="120" height="60" as="geometry" />
        </mxCell>
        <mxCell id="PvjCdeY7pSC6lOEJBARH-25" style="edgeStyle=orthogonalEdgeStyle;rounded=0;orthogonalLoop=1;jettySize=auto;html=1;entryX=0.5;entryY=0;entryDx=0;entryDy=0;" edge="1" parent="1" source="PvjCdeY7pSC6lOEJBARH-15" target="PvjCdeY7pSC6lOEJBARH-23">
          <mxGeometry relative="1" as="geometry" />
        </mxCell>
        <mxCell id="PvjCdeY7pSC6lOEJBARH-15" value="科学发展" style="rounded=0;whiteSpace=wrap;html=1;" vertex="1" parent="1">
          <mxGeometry x="390" y="460" width="120" height="60" as="geometry" />
        </mxCell>
        <mxCell id="PvjCdeY7pSC6lOEJBARH-18" style="edgeStyle=orthogonalEdgeStyle;rounded=0;orthogonalLoop=1;jettySize=auto;html=1;entryX=0.75;entryY=1;entryDx=0;entryDy=0;" edge="1" parent="1" source="PvjCdeY7pSC6lOEJBARH-17" target="PvjCdeY7pSC6lOEJBARH-1">
          <mxGeometry relative="1" as="geometry" />
        </mxCell>
        <mxCell id="PvjCdeY7pSC6lOEJBARH-17" value="黑死病" style="rounded=0;whiteSpace=wrap;html=1;" vertex="1" parent="1">
          <mxGeometry y="690" width="120" height="60" as="geometry" />
        </mxCell>
        <mxCell id="PvjCdeY7pSC6lOEJBARH-20" style="edgeStyle=orthogonalEdgeStyle;rounded=0;orthogonalLoop=1;jettySize=auto;html=1;entryX=0;entryY=0.5;entryDx=0;entryDy=0;" edge="1" parent="1" source="PvjCdeY7pSC6lOEJBARH-19" target="PvjCdeY7pSC6lOEJBARH-8">
          <mxGeometry relative="1" as="geometry" />
        </mxCell>
        <mxCell id="PvjCdeY7pSC6lOEJBARH-19" value="奥斯曼崛起" style="rounded=0;whiteSpace=wrap;html=1;" vertex="1" parent="1">
          <mxGeometry x="-310" y="415" width="120" height="60" as="geometry" />
        </mxCell>
        <mxCell id="PvjCdeY7pSC6lOEJBARH-27" style="edgeStyle=orthogonalEdgeStyle;rounded=0;orthogonalLoop=1;jettySize=auto;html=1;entryX=0;entryY=0.5;entryDx=0;entryDy=0;" edge="1" parent="1" source="PvjCdeY7pSC6lOEJBARH-21" target="PvjCdeY7pSC6lOEJBARH-2">
          <mxGeometry relative="1" as="geometry" />
        </mxCell>
        <mxCell id="PvjCdeY7pSC6lOEJBARH-21" value="欧洲和亚洲的贸易路线受到限制" style="rounded=0;whiteSpace=wrap;html=1;" vertex="1" parent="1">
          <mxGeometry y="820" width="120" height="60" as="geometry" />
        </mxCell>
        <mxCell id="PvjCdeY7pSC6lOEJBARH-26" style="edgeStyle=orthogonalEdgeStyle;rounded=0;orthogonalLoop=1;jettySize=auto;html=1;" edge="1" parent="1" source="PvjCdeY7pSC6lOEJBARH-23" target="PvjCdeY7pSC6lOEJBARH-2">
          <mxGeometry relative="1" as="geometry" />
        </mxCell>
        <mxCell id="PvjCdeY7pSC6lOEJBARH-23" value="航海技术发展" style="rounded=0;whiteSpace=wrap;html=1;" vertex="1" parent="1">
          <mxGeometry x="390" y="605" width="120" height="60" as="geometry" />
        </mxCell>
      </root>
    </mxGraphModel>
  </diagram>
</mxfile>
